# xmcd
# 
# Track frame offsets:
#     150
#     30195
#     75716
#     92397
#     134608
#     171579
#     200674
# 
# Disc length: 2963
# 
# Revision: 0
# Processed by: cddbd v1.5.2PL0 Copyright (c) Steve Scherf et al.
# Submitted via: fre:ac v1.0.31
# 
DISCID=550b9107
DTITLE=Hans Theessink and Michael Köhlmeier - Westernhelden CD2
DYEAR=2019
DGENRE=Blues
TTITLE0=Angel Of Death
TTITLE1=JohnWesley Harding
TTITLE2=John Wesley Harding
TTITLE3=Billy The Kid
TTITLE4=Billy
TTITLE5=Slow Train
TTITLE6=He Was A Friend Of Mine
EXTD=
EXTT0=
EXTT1=
EXTT2=
EXTT3=
EXTT4=
EXTT5=
EXTT6=
PLAYORDER=
